<mxfile host="app.diagrams.net" modified="2021-05-06T09:40:27.101Z" agent="5.0 (Windows NT 10.0; Win64; x64) AppleWebKit/537.36 (KHTML, like Gecko) Chrome/90.0.4430.93 Safari/537.36" etag="qWsUlzgMciJlH4qyZ-UO" version="14.6.10" type="github">
  <diagram id="sTi3w3U7mjkcrNI-PgOY" name="Page-1">
    <mxGraphModel dx="868" dy="482" grid="1" gridSize="10" guides="1" tooltips="1" connect="1" arrows="1" fold="1" page="1" pageScale="1" pageWidth="827" pageHeight="1169" math="0" shadow="0">
      <root>
        <mxCell id="0" />
        <mxCell id="1" parent="0" />
        <mxCell id="kEPuEHl5TJIxSfUy3IAm-1" value="" style="shape=mxgraph.cisco.computers_and_peripherals.laptop;html=1;pointerEvents=1;dashed=0;fillColor=#036897;strokeColor=#ffffff;strokeWidth=2;verticalLabelPosition=bottom;verticalAlign=top;align=center;outlineConnect=0;" vertex="1" parent="1">
          <mxGeometry x="104" y="137.5" width="90" height="61" as="geometry" />
        </mxCell>
        <mxCell id="kEPuEHl5TJIxSfUy3IAm-2" value="" style="html=1;shadow=0;dashed=0;align=center;verticalAlign=middle;shape=mxgraph.arrows2.twoWayArrow;dy=0.65;dx=22;" vertex="1" parent="1">
          <mxGeometry x="194" y="157.5" width="150" height="10" as="geometry" />
        </mxCell>
        <mxCell id="kEPuEHl5TJIxSfUy3IAm-3" value="" style="rounded=0;whiteSpace=wrap;html=1;" vertex="1" parent="1">
          <mxGeometry x="344" y="70" width="280" height="145" as="geometry" />
        </mxCell>
        <mxCell id="kEPuEHl5TJIxSfUy3IAm-4" value="Text" style="text;html=1;strokeColor=none;fillColor=none;align=center;verticalAlign=middle;whiteSpace=wrap;rounded=0;" vertex="1" parent="1">
          <mxGeometry x="394" y="155" width="40" height="15" as="geometry" />
        </mxCell>
        <mxCell id="kEPuEHl5TJIxSfUy3IAm-5" value="FRONTEND&lt;br&gt;&amp;nbsp;JavaFX" style="rounded=0;whiteSpace=wrap;html=1;" vertex="1" parent="1">
          <mxGeometry x="364" y="132.5" width="120" height="60" as="geometry" />
        </mxCell>
        <mxCell id="kEPuEHl5TJIxSfUy3IAm-6" value="BACKEND&lt;br&gt;Java" style="rounded=0;whiteSpace=wrap;html=1;" vertex="1" parent="1">
          <mxGeometry x="494" y="132.5" width="120" height="60" as="geometry" />
        </mxCell>
        <mxCell id="kEPuEHl5TJIxSfUy3IAm-7" value="" style="aspect=fixed;perimeter=ellipsePerimeter;html=1;align=center;shadow=0;dashed=0;spacingTop=3;image;image=img/lib/active_directory/database.svg;" vertex="1" parent="1">
          <mxGeometry x="720" y="144" width="50" height="37" as="geometry" />
        </mxCell>
        <mxCell id="kEPuEHl5TJIxSfUy3IAm-8" value="" style="html=1;shadow=0;dashed=0;align=center;verticalAlign=middle;shape=mxgraph.arrows2.twoWayArrow;dy=0.65;dx=22;" vertex="1" parent="1">
          <mxGeometry x="624" y="155" width="96" height="10" as="geometry" />
        </mxCell>
        <mxCell id="kEPuEHl5TJIxSfUy3IAm-11" value="phpmyadmin database" style="text;html=1;strokeColor=none;fillColor=none;align=center;verticalAlign=middle;whiteSpace=wrap;rounded=0;" vertex="1" parent="1">
          <mxGeometry x="725" y="181" width="40" height="20" as="geometry" />
        </mxCell>
        <mxCell id="kEPuEHl5TJIxSfUy3IAm-13" value="Car Service Application&lt;br&gt;" style="text;html=1;strokeColor=none;fillColor=none;align=center;verticalAlign=middle;whiteSpace=wrap;rounded=0;" vertex="1" parent="1">
          <mxGeometry x="420" y="90" width="140" height="20" as="geometry" />
        </mxCell>
      </root>
    </mxGraphModel>
  </diagram>
</mxfile>
